<mxfile host="app.diagrams.net" modified="2022-06-22T23:27:05.210Z" agent="5.0 (X11)" etag="lAk9QQdOw1TESzASCCaJ" version="20.0.2" type="github">
  <diagram name="Page-1" id="58cdce13-f638-feb5-8d6f-7d28b1aa9fa0">
    <mxGraphModel dx="1422" dy="1643" grid="1" gridSize="10" guides="1" tooltips="1" connect="1" arrows="1" fold="1" page="1" pageScale="1" pageWidth="1100" pageHeight="850" background="none" math="0" shadow="0">
      <root>
        <mxCell id="0" />
        <mxCell id="1" parent="0" />
        <mxCell id="tsz4WT_P7tJj26BBKG4R-13" value="InstanceInterface" style="swimlane;fontStyle=1;align=center;verticalAlign=top;childLayout=stackLayout;horizontal=1;startSize=26;horizontalStack=0;resizeParent=1;resizeParentMax=0;resizeLast=0;collapsible=1;marginBottom=0;rounded=0;glass=0;fillColor=#fff2cc;gradientDirection=east;strokeColor=#d6b656;gradientColor=#ffffff;" vertex="1" parent="1">
          <mxGeometry x="175" y="80" width="645" height="186" as="geometry" />
        </mxCell>
        <mxCell id="tsz4WT_P7tJj26BBKG4R-15" value="" style="line;strokeWidth=1;align=left;verticalAlign=middle;spacingTop=-1;spacingLeft=3;spacingRight=3;rotatable=0;labelPosition=right;points=[];portConstraint=eastwest;rounded=0;glass=0;gradientDirection=east;fillColor=#fff2cc;strokeColor=#000000;" vertex="1" parent="tsz4WT_P7tJj26BBKG4R-13">
          <mxGeometry y="26" width="645" height="4" as="geometry" />
        </mxCell>
        <mxCell id="tsz4WT_P7tJj26BBKG4R-16" value="+ getInstance(in instanceId: Long): Instance" style="text;strokeColor=none;fillColor=#fff2cc;align=left;verticalAlign=top;spacingLeft=4;spacingRight=4;overflow=hidden;rotatable=0;points=[[0,0.5],[1,0.5]];portConstraint=eastwest;rounded=0;glass=0;gradientColor=#ffffff;gradientDirection=east;strokeWidth=1;" vertex="1" parent="tsz4WT_P7tJj26BBKG4R-13">
          <mxGeometry y="30" width="645" height="26" as="geometry" />
        </mxCell>
        <mxCell id="tsz4WT_P7tJj26BBKG4R-20" value="+ saveInstance(in instance: Instance): Instance" style="text;strokeColor=none;fillColor=#fff2cc;align=left;verticalAlign=top;spacingLeft=4;spacingRight=4;overflow=hidden;rotatable=0;points=[[0,0.5],[1,0.5]];portConstraint=eastwest;rounded=0;glass=0;gradientColor=#ffffff;gradientDirection=east;strokeWidth=1;" vertex="1" parent="tsz4WT_P7tJj26BBKG4R-13">
          <mxGeometry y="56" width="645" height="26" as="geometry" />
        </mxCell>
        <mxCell id="tsz4WT_P7tJj26BBKG4R-21" value="+ updateInstance(in instance: Instance): Instance" style="text;strokeColor=none;fillColor=#fff2cc;align=left;verticalAlign=top;spacingLeft=4;spacingRight=4;overflow=hidden;rotatable=0;points=[[0,0.5],[1,0.5]];portConstraint=eastwest;rounded=0;glass=0;gradientColor=#ffffff;gradientDirection=east;strokeWidth=1;" vertex="1" parent="tsz4WT_P7tJj26BBKG4R-13">
          <mxGeometry y="82" width="645" height="26" as="geometry" />
        </mxCell>
        <mxCell id="tsz4WT_P7tJj26BBKG4R-22" value="+ deleteInstance(in instanceId: Long): &lt;no type&gt;&#xa;" style="text;strokeColor=none;fillColor=#fff2cc;align=left;verticalAlign=top;spacingLeft=4;spacingRight=4;overflow=hidden;rotatable=0;points=[[0,0.5],[1,0.5]];portConstraint=eastwest;rounded=0;glass=0;gradientColor=#ffffff;gradientDirection=east;strokeWidth=1;" vertex="1" parent="tsz4WT_P7tJj26BBKG4R-13">
          <mxGeometry y="108" width="645" height="26" as="geometry" />
        </mxCell>
        <mxCell id="tsz4WT_P7tJj26BBKG4R-69" value="+ updateInstanceStatus(in instanceId: Long, in status: InstanceStatus): &lt;no type&gt;&#xa;" style="text;strokeColor=none;fillColor=#fff2cc;align=left;verticalAlign=top;spacingLeft=4;spacingRight=4;overflow=hidden;rotatable=0;points=[[0,0.5],[1,0.5]];portConstraint=eastwest;rounded=0;glass=0;gradientColor=#ffffff;gradientDirection=east;strokeWidth=1;" vertex="1" parent="tsz4WT_P7tJj26BBKG4R-13">
          <mxGeometry y="134" width="645" height="26" as="geometry" />
        </mxCell>
        <mxCell id="tsz4WT_P7tJj26BBKG4R-70" value="+ updateInstanceLedgerStatus(in instanceId: Long, in instanceLedgerStatus: LedgerStatus): &lt;no type&gt;&#xa;" style="text;strokeColor=none;fillColor=#fff2cc;align=left;verticalAlign=top;spacingLeft=4;spacingRight=4;overflow=hidden;rotatable=0;points=[[0,0.5],[1,0.5]];portConstraint=eastwest;rounded=0;glass=0;gradientColor=#ffffff;gradientDirection=east;strokeWidth=1;" vertex="1" parent="tsz4WT_P7tJj26BBKG4R-13">
          <mxGeometry y="160" width="645" height="26" as="geometry" />
        </mxCell>
        <mxCell id="tsz4WT_P7tJj26BBKG4R-36" value="DocInterface" style="swimlane;fontStyle=1;align=center;verticalAlign=top;childLayout=stackLayout;horizontal=1;startSize=26;horizontalStack=0;resizeParent=1;resizeParentMax=0;resizeLast=0;collapsible=1;marginBottom=0;rounded=0;glass=0;fillColor=#fff2cc;gradientDirection=east;strokeColor=#d6b656;gradientColor=#ffffff;" vertex="1" parent="1">
          <mxGeometry x="1190" y="300" width="280" height="134" as="geometry" />
        </mxCell>
        <mxCell id="tsz4WT_P7tJj26BBKG4R-37" value="" style="line;strokeWidth=1;align=left;verticalAlign=middle;spacingTop=-1;spacingLeft=3;spacingRight=3;rotatable=0;labelPosition=right;points=[];portConstraint=eastwest;rounded=0;glass=0;gradientDirection=east;strokeColor=#000000;fillColor=#fff2cc;gradientColor=#ffffff;" vertex="1" parent="tsz4WT_P7tJj26BBKG4R-36">
          <mxGeometry y="26" width="280" height="4" as="geometry" />
        </mxCell>
        <mxCell id="tsz4WT_P7tJj26BBKG4R-38" value="+ getDoc(in docId: Long): Doc" style="text;strokeColor=none;fillColor=#fff2cc;align=left;verticalAlign=top;spacingLeft=4;spacingRight=4;overflow=hidden;rotatable=0;points=[[0,0.5],[1,0.5]];portConstraint=eastwest;rounded=0;glass=0;gradientColor=#ffffff;gradientDirection=east;strokeWidth=1;" vertex="1" parent="tsz4WT_P7tJj26BBKG4R-36">
          <mxGeometry y="30" width="280" height="26" as="geometry" />
        </mxCell>
        <mxCell id="tsz4WT_P7tJj26BBKG4R-39" value="+ saveDoc(in doc: Doc): Doc" style="text;strokeColor=none;fillColor=#fff2cc;align=left;verticalAlign=top;spacingLeft=4;spacingRight=4;overflow=hidden;rotatable=0;points=[[0,0.5],[1,0.5]];portConstraint=eastwest;rounded=0;glass=0;gradientColor=#ffffff;gradientDirection=east;strokeWidth=1;" vertex="1" parent="tsz4WT_P7tJj26BBKG4R-36">
          <mxGeometry y="56" width="280" height="26" as="geometry" />
        </mxCell>
        <mxCell id="tsz4WT_P7tJj26BBKG4R-40" value="+ updateDoc(in doc: Doc): Doc" style="text;strokeColor=none;fillColor=#fff2cc;align=left;verticalAlign=top;spacingLeft=4;spacingRight=4;overflow=hidden;rotatable=0;points=[[0,0.5],[1,0.5]];portConstraint=eastwest;rounded=0;glass=0;gradientColor=#ffffff;gradientDirection=east;strokeWidth=1;" vertex="1" parent="tsz4WT_P7tJj26BBKG4R-36">
          <mxGeometry y="82" width="280" height="26" as="geometry" />
        </mxCell>
        <mxCell id="tsz4WT_P7tJj26BBKG4R-41" value="+ deleteDoc(in docId: Long): &lt;no type&gt;&#xa;" style="text;strokeColor=none;fillColor=#fff2cc;align=left;verticalAlign=top;spacingLeft=4;spacingRight=4;overflow=hidden;rotatable=0;points=[[0,0.5],[1,0.5]];portConstraint=eastwest;rounded=0;glass=0;gradientColor=#ffffff;gradientDirection=east;strokeWidth=1;" vertex="1" parent="tsz4WT_P7tJj26BBKG4R-36">
          <mxGeometry y="108" width="280" height="26" as="geometry" />
        </mxCell>
        <mxCell id="tsz4WT_P7tJj26BBKG4R-30" value="XmlInterface" style="swimlane;fontStyle=1;align=center;verticalAlign=top;childLayout=stackLayout;horizontal=1;startSize=26;horizontalStack=0;resizeParent=1;resizeParentMax=0;resizeLast=0;collapsible=1;marginBottom=0;rounded=0;glass=0;fillColor=#fff2cc;gradientDirection=east;strokeColor=#d6b656;gradientColor=#ffffff;" vertex="1" parent="1">
          <mxGeometry x="890" y="287" width="280" height="160" as="geometry" />
        </mxCell>
        <mxCell id="tsz4WT_P7tJj26BBKG4R-31" value="" style="line;strokeWidth=1;align=left;verticalAlign=middle;spacingTop=-1;spacingLeft=3;spacingRight=3;rotatable=0;labelPosition=right;points=[];portConstraint=eastwest;rounded=0;glass=0;gradientDirection=east;strokeColor=#000000;fillColor=#fff2cc;gradientColor=#ffffff;" vertex="1" parent="tsz4WT_P7tJj26BBKG4R-30">
          <mxGeometry y="26" width="280" height="4" as="geometry" />
        </mxCell>
        <mxCell id="tsz4WT_P7tJj26BBKG4R-32" value="+ getXml(in xmlId: Long): Xml" style="text;strokeColor=none;fillColor=#fff2cc;align=left;verticalAlign=top;spacingLeft=4;spacingRight=4;overflow=hidden;rotatable=0;points=[[0,0.5],[1,0.5]];portConstraint=eastwest;rounded=0;glass=0;gradientColor=#ffffff;gradientDirection=east;strokeWidth=1;" vertex="1" parent="tsz4WT_P7tJj26BBKG4R-30">
          <mxGeometry y="30" width="280" height="26" as="geometry" />
        </mxCell>
        <mxCell id="tsz4WT_P7tJj26BBKG4R-33" value="+ saveXml(in xml: Xml): Xml" style="text;strokeColor=none;fillColor=#fff2cc;align=left;verticalAlign=top;spacingLeft=4;spacingRight=4;overflow=hidden;rotatable=0;points=[[0,0.5],[1,0.5]];portConstraint=eastwest;rounded=0;glass=0;gradientColor=#ffffff;gradientDirection=east;strokeWidth=1;" vertex="1" parent="tsz4WT_P7tJj26BBKG4R-30">
          <mxGeometry y="56" width="280" height="26" as="geometry" />
        </mxCell>
        <mxCell id="tsz4WT_P7tJj26BBKG4R-34" value="+ updateXml(in xml: Xml): Xml" style="text;strokeColor=none;fillColor=#fff2cc;align=left;verticalAlign=top;spacingLeft=4;spacingRight=4;overflow=hidden;rotatable=0;points=[[0,0.5],[1,0.5]];portConstraint=eastwest;rounded=0;glass=0;gradientColor=#ffffff;gradientDirection=east;strokeWidth=1;" vertex="1" parent="tsz4WT_P7tJj26BBKG4R-30">
          <mxGeometry y="82" width="280" height="26" as="geometry" />
        </mxCell>
        <mxCell id="tsz4WT_P7tJj26BBKG4R-35" value="+ deleteXml(in xmlId: Long): &lt;no type&gt;&#xa;" style="text;strokeColor=none;fillColor=#fff2cc;align=left;verticalAlign=top;spacingLeft=4;spacingRight=4;overflow=hidden;rotatable=0;points=[[0,0.5],[1,0.5]];portConstraint=eastwest;rounded=0;glass=0;gradientColor=#ffffff;gradientDirection=east;strokeWidth=1;" vertex="1" parent="tsz4WT_P7tJj26BBKG4R-30">
          <mxGeometry y="108" width="280" height="26" as="geometry" />
        </mxCell>
        <mxCell id="tsz4WT_P7tJj26BBKG4R-67" value="+ validateXml(in schema: string, in xml: string): boolean&#xa;&#xa;" style="text;strokeColor=none;fillColor=#fff2cc;align=left;verticalAlign=top;spacingLeft=4;spacingRight=4;overflow=hidden;rotatable=0;points=[[0,0.5],[1,0.5]];portConstraint=eastwest;rounded=0;glass=0;gradientColor=#ffffff;gradientDirection=east;strokeWidth=1;" vertex="1" parent="tsz4WT_P7tJj26BBKG4R-30">
          <mxGeometry y="134" width="280" height="26" as="geometry" />
        </mxCell>
        <mxCell id="tsz4WT_P7tJj26BBKG4R-42" value="SearchServiceInterface" style="swimlane;fontStyle=1;align=center;verticalAlign=top;childLayout=stackLayout;horizontal=1;startSize=26;horizontalStack=0;resizeParent=1;resizeParentMax=0;resizeLast=0;collapsible=1;marginBottom=0;rounded=0;glass=0;fillColor=#fff2cc;gradientDirection=east;strokeColor=#d6b656;gradientColor=#ffffff;" vertex="1" parent="1">
          <mxGeometry x="175" y="-20" width="650" height="56" as="geometry" />
        </mxCell>
        <mxCell id="tsz4WT_P7tJj26BBKG4R-43" value="" style="line;strokeWidth=1;align=left;verticalAlign=middle;spacingTop=-1;spacingLeft=3;spacingRight=3;rotatable=0;labelPosition=right;points=[];portConstraint=eastwest;rounded=0;glass=0;gradientDirection=east;fillColor=#fff2cc;strokeColor=#000000;" vertex="1" parent="tsz4WT_P7tJj26BBKG4R-42">
          <mxGeometry y="26" width="650" height="4" as="geometry" />
        </mxCell>
        <mxCell id="tsz4WT_P7tJj26BBKG4R-44" value="+ searchService(in searchServiceObj: SearchServiceObject, in page: int, in pageSize: int): List&lt;SearchObjectResult&gt;&#xa;" style="text;strokeColor=none;fillColor=#fff2cc;align=left;verticalAlign=top;spacingLeft=4;spacingRight=4;overflow=hidden;rotatable=0;points=[[0,0.5],[1,0.5]];portConstraint=eastwest;rounded=0;glass=0;gradientColor=#ffffff;gradientDirection=east;strokeWidth=1;" vertex="1" parent="tsz4WT_P7tJj26BBKG4R-42">
          <mxGeometry y="30" width="650" height="26" as="geometry" />
        </mxCell>
        <mxCell id="tsz4WT_P7tJj26BBKG4R-58" style="edgeStyle=orthogonalEdgeStyle;rounded=0;orthogonalLoop=1;jettySize=auto;html=1;entryX=1;entryY=0.5;entryDx=0;entryDy=0;" edge="1" parent="1" source="tsz4WT_P7tJj26BBKG4R-49" target="tsz4WT_P7tJj26BBKG4R-21">
          <mxGeometry relative="1" as="geometry">
            <mxPoint x="1420" y="320" as="targetPoint" />
            <Array as="points">
              <mxPoint x="980" y="150" />
              <mxPoint x="820" y="150" />
            </Array>
          </mxGeometry>
        </mxCell>
        <mxCell id="tsz4WT_P7tJj26BBKG4R-59" style="edgeStyle=orthogonalEdgeStyle;rounded=0;orthogonalLoop=1;jettySize=auto;html=1;entryX=0.5;entryY=0;entryDx=0;entryDy=0;" edge="1" parent="1" source="tsz4WT_P7tJj26BBKG4R-49" target="tsz4WT_P7tJj26BBKG4R-30">
          <mxGeometry relative="1" as="geometry" />
        </mxCell>
        <mxCell id="tsz4WT_P7tJj26BBKG4R-60" style="edgeStyle=orthogonalEdgeStyle;rounded=0;orthogonalLoop=1;jettySize=auto;html=1;" edge="1" parent="1" source="tsz4WT_P7tJj26BBKG4R-49" target="tsz4WT_P7tJj26BBKG4R-36">
          <mxGeometry relative="1" as="geometry" />
        </mxCell>
        <mxCell id="tsz4WT_P7tJj26BBKG4R-61" style="edgeStyle=orthogonalEdgeStyle;rounded=0;orthogonalLoop=1;jettySize=auto;html=1;entryX=0.141;entryY=0.015;entryDx=0;entryDy=0;entryPerimeter=0;" edge="1" parent="1" source="tsz4WT_P7tJj26BBKG4R-49" target="tsz4WT_P7tJj26BBKG4R-51">
          <mxGeometry relative="1" as="geometry">
            <mxPoint x="360" y="260" as="targetPoint" />
            <Array as="points">
              <mxPoint x="840" y="110" />
              <mxPoint x="840" y="280" />
              <mxPoint x="320" y="280" />
              <mxPoint x="320" y="302" />
            </Array>
          </mxGeometry>
        </mxCell>
        <mxCell id="tsz4WT_P7tJj26BBKG4R-49" value="&lt;div&gt;Service Provider&lt;/div&gt;" style="rounded=0;whiteSpace=wrap;html=1;glass=0;strokeColor=#d6b656;strokeWidth=1;fillColor=#fff2cc;gradientDirection=east;gradientColor=#ffffff;" vertex="1" parent="1">
          <mxGeometry x="1130" y="110" width="140" height="40" as="geometry" />
        </mxCell>
        <mxCell id="tsz4WT_P7tJj26BBKG4R-62" style="edgeStyle=orthogonalEdgeStyle;rounded=0;orthogonalLoop=1;jettySize=auto;html=1;" edge="1" parent="1" source="tsz4WT_P7tJj26BBKG4R-50" target="tsz4WT_P7tJj26BBKG4R-44">
          <mxGeometry relative="1" as="geometry" />
        </mxCell>
        <mxCell id="tsz4WT_P7tJj26BBKG4R-71" style="edgeStyle=orthogonalEdgeStyle;rounded=0;orthogonalLoop=1;jettySize=auto;html=1;entryX=0.75;entryY=0;entryDx=0;entryDy=0;" edge="1" parent="1" source="tsz4WT_P7tJj26BBKG4R-50" target="tsz4WT_P7tJj26BBKG4R-36">
          <mxGeometry relative="1" as="geometry" />
        </mxCell>
        <mxCell id="tsz4WT_P7tJj26BBKG4R-50" value="&lt;div&gt;Service Consumer&lt;/div&gt;" style="rounded=0;whiteSpace=wrap;html=1;glass=0;strokeColor=#d6b656;strokeWidth=1;fillColor=#fff2cc;gradientDirection=east;gradientColor=#ffffff;" vertex="1" parent="1">
          <mxGeometry x="1280" y="3" width="140" height="40" as="geometry" />
        </mxCell>
        <mxCell id="tsz4WT_P7tJj26BBKG4R-51" value="LedgerRequestInterface" style="swimlane;fontStyle=1;align=center;verticalAlign=top;childLayout=stackLayout;horizontal=1;startSize=26;horizontalStack=0;resizeParent=1;resizeParentMax=0;resizeLast=0;collapsible=1;marginBottom=0;rounded=0;glass=0;fillColor=#fff2cc;gradientDirection=east;strokeColor=#d6b656;gradientColor=#ffffff;" vertex="1" parent="1">
          <mxGeometry x="175" y="300" width="645" height="134" as="geometry" />
        </mxCell>
        <mxCell id="tsz4WT_P7tJj26BBKG4R-52" value="" style="line;strokeWidth=1;align=left;verticalAlign=middle;spacingTop=-1;spacingLeft=3;spacingRight=3;rotatable=0;labelPosition=right;points=[];portConstraint=eastwest;rounded=0;glass=0;gradientDirection=east;strokeColor=#000000;fillColor=#fff2cc;gradientColor=#ffffff;" vertex="1" parent="tsz4WT_P7tJj26BBKG4R-51">
          <mxGeometry y="26" width="645" height="4" as="geometry" />
        </mxCell>
        <mxCell id="tsz4WT_P7tJj26BBKG4R-54" value="+ geLedgerRequest(in ledgerRequestId : Long): LedgerRequest " style="text;strokeColor=none;fillColor=#fff2cc;align=left;verticalAlign=top;spacingLeft=4;spacingRight=4;overflow=hidden;rotatable=0;points=[[0,0.5],[1,0.5]];portConstraint=eastwest;rounded=0;glass=0;gradientColor=#ffffff;gradientDirection=east;strokeWidth=1;" vertex="1" parent="tsz4WT_P7tJj26BBKG4R-51">
          <mxGeometry y="30" width="645" height="26" as="geometry" />
        </mxCell>
        <mxCell id="tsz4WT_P7tJj26BBKG4R-57" value="+ saveLedgerRequest(in ledgerRequest : LedgerRequest): LedgerRequest" style="text;strokeColor=none;fillColor=#fff2cc;align=left;verticalAlign=top;spacingLeft=4;spacingRight=4;overflow=hidden;rotatable=0;points=[[0,0.5],[1,0.5]];portConstraint=eastwest;rounded=0;glass=0;gradientColor=#ffffff;gradientDirection=east;strokeWidth=1;" vertex="1" parent="tsz4WT_P7tJj26BBKG4R-51">
          <mxGeometry y="56" width="645" height="26" as="geometry" />
        </mxCell>
        <mxCell id="tsz4WT_P7tJj26BBKG4R-55" value="+ updateLedgerRequestStatus(in ledgerRequestId : Long, in status: LedgerRequestStatus): LedgerRequest" style="text;strokeColor=none;fillColor=#fff2cc;align=left;verticalAlign=top;spacingLeft=4;spacingRight=4;overflow=hidden;rotatable=0;points=[[0,0.5],[1,0.5]];portConstraint=eastwest;rounded=0;glass=0;gradientColor=#ffffff;gradientDirection=east;strokeWidth=1;" vertex="1" parent="tsz4WT_P7tJj26BBKG4R-51">
          <mxGeometry y="82" width="645" height="26" as="geometry" />
        </mxCell>
        <mxCell id="tsz4WT_P7tJj26BBKG4R-56" value="+ deleteLedgerRequest(in ledgerRequestId : Long): &lt;no type&gt;&#xa;" style="text;strokeColor=none;fillColor=#fff2cc;align=left;verticalAlign=top;spacingLeft=4;spacingRight=4;overflow=hidden;rotatable=0;points=[[0,0.5],[1,0.5]];portConstraint=eastwest;rounded=0;glass=0;gradientColor=#ffffff;gradientDirection=east;strokeWidth=1;" vertex="1" parent="tsz4WT_P7tJj26BBKG4R-51">
          <mxGeometry y="108" width="645" height="26" as="geometry" />
        </mxCell>
      </root>
    </mxGraphModel>
  </diagram>
</mxfile>
